<svg fill="none" viewBox="0 0 50 50">
  <defs/>
  <rect width="50" height="50" fill="url(#paint0_linear)" rx="1"/>
  <g stroke="#fff" stroke-width="1.3" clip-path="url(#clip0)">
    <path d="M34 14.4v4.7h-4.8v-8.5h2l2.8 3.8zM32 28.8H10.7v-6.6h28.8v.2a6 6 0 01-2.1 4.7 8 8 0 01-5.2 1.7zM22.3 31.9h7.1c-.4.5-.7 1.2-.7 2 0 1.8 1.5 3.2 3.3 3.2h3.8v2.3H16V37h3.7a3.3 3.3 0 002.6-5.2zM10.7 14.3h18.2v3H10.6v-3z"/>
  </g>
  <defs>
    <linearGradient id="paint0_linear" x1="0" x2="50" y1="25" y2="25" gradientUnits="userSpaceOnUse">
      <stop stop-color="#44B0FF"/>
      <stop offset="1" stop-color="#07C"/>
    </linearGradient>
    <clipPath id="clip0">
      <path fill="#fff" d="M0 0h30v30H0z" transform="translate(10 10)"/>
    </clipPath>
  </defs>
</svg>
