<svg width="30" height="30" viewBox="0 0 30 30" fill="none" xmlns="http://www.w3.org/2000/svg">
<path d="M15 30C23.2843 30 30 23.2843 30 15C30 6.71573 23.2843 0 15 0C6.71573 0 0 6.71573 0 15C0 23.2843 6.71573 30 15 30Z" fill="#039BE5"/>
<path d="M6.745 14.3669L20.9344 9.06489C21.593 8.83432 22.1682 9.22059 21.9548 10.1857L21.956 10.1845L19.54 21.2151C19.3609 21.9972 18.8814 22.1874 18.2106 21.8189L14.5314 19.1911L12.7568 20.8479C12.5606 21.0381 12.395 21.1985 12.0148 21.1985L12.276 17.57L19.0948 11.6C19.3916 11.3469 19.0286 11.2042 18.6374 11.4562L10.2108 16.5977L6.57821 15.4995C5.78964 15.2571 5.77247 14.7353 6.745 14.3669Z" fill="white"/>
</svg>
