<svg xmlns="http://www.w3.org/2000/svg" fill="none" viewBox="0 0 50 50">
  <defs/>
  <rect width="50" height="50" fill="url(#paint0_linear)" rx="1"/>
  <path fill="#fff" d="M14.32 16.29c-.74 4.44-.83 8.66.56 12.36 1.4 3.7 4.32 6.95 9.62 9.46 5.3-2.51 8.22-5.76 9.62-9.46 1.4-3.7 1.3-7.92.56-12.35-1.72-.84-3.2-1.6-4.44-2.23-6-3.07-5.8-3-11.8.12-1.11.57-2.42 1.25-4.12 2.1zm-1.1 13c-1.59-4.19-1.45-8.87-.59-13.76a.9.9 0 01.5-.65c1.69-.84 3.21-1.63 4.49-2.29 6.54-3.4 6.86-3.47 13.42-.12 1.27.64 2.8 1.43 4.83 2.4a.9.9 0 01.5.66c.86 4.89 1 9.57-.58 13.75-1.6 4.22-4.9 7.88-10.92 10.64-.23.1-.5.11-.74 0-6.02-2.76-9.33-6.42-10.92-10.64z"/>
  <path fill="#fff" d="M19.42 26.04a.9.9 0 010-1.27.9.9 0 011.27 0l2 2.03 5.63-5.51a.9.9 0 011.27.02.9.9 0 01-.02 1.27l-6.26 6.13a.9.9 0 01-1.25-.01l-2.64-2.66z"/>
  <defs>
    <linearGradient id="paint0_linear" x1="0" x2="50" y1="25" y2="25" gradientUnits="userSpaceOnUse">
      <stop stop-color="#FF8000"/>
      <stop offset="1" stop-color="#FFC000"/>
    </linearGradient>
  </defs>
</svg>
