<svg width="202" height="50" viewBox="0 0 202 50" fill="none" xmlns="http://www.w3.org/2000/svg">
<rect width="202" height="50" />
<g clip-path="url(#clip0)">
<path d="M73.2179 21.5776C73.2179 23.5276 72.9233 25.3071 72.3586 26.9403C71.7693 28.5735 70.959 29.9629 69.9032 31.133C68.8474 32.303 67.5707 33.2293 66.0975 33.8875C64.5997 34.5456 62.9792 34.8625 61.1868 34.8625C59.419 34.8625 57.7985 34.5456 56.3007 33.9362C54.803 33.3268 53.5262 32.4493 52.4458 31.3524C51.3655 30.2554 50.5061 28.9391 49.8923 27.4278C49.2785 25.8921 48.9838 24.2345 48.9838 22.4307C48.9838 20.6269 49.2785 18.9693 49.8923 17.4336C50.4816 15.8979 51.3409 14.5816 52.4213 13.4603C53.5016 12.339 54.7784 11.4615 56.2762 10.8521C57.7494 10.2427 59.3944 9.92578 61.1623 9.92578C62.66 9.92578 64.0841 10.1695 65.41 10.6083C66.7359 11.0715 67.939 11.7296 68.9702 12.5584C70.026 13.3872 70.9099 14.3866 71.5974 15.5323C72.3095 16.678 72.776 17.9455 73.0215 19.335H66.3921C65.9747 18.3112 65.2872 17.5067 64.3542 16.9217C63.4212 16.3367 62.3654 16.0442 61.1868 16.0442C60.3274 16.0442 59.5417 16.1904 58.8542 16.5073C58.1422 16.8242 57.5284 17.2386 57.0128 17.8236C56.4971 18.3843 56.1043 19.0668 55.8342 19.8468C55.5641 20.6269 55.4168 21.48 55.4168 22.4307C55.4168 23.357 55.5641 24.2102 55.8342 24.9902C56.1043 25.7702 56.4971 26.4284 56.9882 26.989C57.4793 27.5497 58.0931 27.9641 58.8051 28.281C59.5172 28.5979 60.3029 28.7441 61.1868 28.7441C62.3899 28.7441 63.4703 28.476 64.4033 27.9153C65.3363 27.3547 65.9993 26.6234 66.3676 25.6971H60.6466V21.5776H73.2179Z" fill="#201600"/>
<path d="M94.9476 15.9225V34.229H90.2579L89.7423 32.937C89.0057 33.5464 88.1709 34.0096 87.287 34.3508C86.403 34.6921 85.4209 34.8627 84.4142 34.8627C83.0638 34.8627 81.8116 34.619 80.6821 34.1314C79.5527 33.6439 78.5705 32.9614 77.7357 32.1082C76.9009 31.2307 76.2625 30.2069 75.796 29.0125C75.3295 27.818 75.1085 26.5017 75.1085 25.0879C75.1085 23.6741 75.3295 22.3578 75.796 21.1634C76.2625 19.9689 76.9009 18.9451 77.7357 18.092C78.5705 17.2388 79.5527 16.5563 80.6821 16.0931C81.8116 15.63 83.0638 15.3862 84.4142 15.3862C85.47 15.3862 86.4521 15.5569 87.3361 15.8981C88.2445 16.2394 89.0548 16.7269 89.8159 17.3607L90.4298 15.9469H94.9476V15.9225ZM85.2245 29.2806C85.7892 29.2806 86.3048 29.1831 86.7959 28.9637C87.287 28.7443 87.6798 28.4518 88.0481 28.0862C88.3919 27.7205 88.6619 27.2818 88.8584 26.7699C89.0548 26.258 89.153 25.7217 89.153 25.1367C89.153 24.5516 89.0548 23.991 88.8584 23.5035C88.6619 22.9916 88.3919 22.5528 88.0481 22.1872C87.7044 21.8215 87.287 21.529 86.7959 21.3096C86.3048 21.0902 85.7892 20.9927 85.2245 20.9927C84.0459 20.9927 83.0883 21.3828 82.3517 22.1872C81.6151 22.9672 81.2468 23.9666 81.2468 25.161C81.2468 25.7461 81.3451 26.3067 81.5415 26.7942C81.7379 27.3061 82.008 27.7449 82.3517 28.1106C82.6955 28.4762 83.1129 28.7687 83.604 28.9881C84.1196 29.1587 84.6598 29.2806 85.2245 29.2806Z" fill="#201600"/>
<path d="M110.735 28.7198V34.2532H106.561C104.572 34.2532 103.026 33.6681 101.921 32.5225C100.816 31.3768 100.276 29.768 100.276 27.7204V20.7976H97.0346V19.335L104.965 10.584H106.218V15.9467H110.662V20.7976H106.365V26.6235C106.365 27.2816 106.537 27.7935 106.905 28.1591C107.273 28.5248 107.764 28.7198 108.403 28.7198H110.735Z" fill="#201600"/>
<path d="M131.655 24.9416C131.655 25.2097 131.655 25.4779 131.63 25.746C131.606 26.0141 131.581 26.3066 131.532 26.5992H118.396C118.592 27.6717 119.01 28.4517 119.624 28.988C120.237 29.5243 121.048 29.7924 122.005 29.7924C122.717 29.7924 123.356 29.6462 123.92 29.3293C124.485 29.0124 124.903 28.598 125.222 28.0617H131.286C130.992 29.1099 130.525 30.0362 129.936 30.8893C129.347 31.7425 128.659 32.4494 127.849 33.0344C127.063 33.6195 126.155 34.0826 125.173 34.3995C124.191 34.7164 123.135 34.8626 122.005 34.8626C120.63 34.8626 119.354 34.6189 118.2 34.107C117.021 33.6195 116.014 32.9369 115.155 32.0594C114.296 31.1819 113.608 30.1581 113.142 28.9636C112.65 27.7692 112.43 26.4773 112.43 25.0878C112.43 23.6984 112.675 22.3821 113.142 21.1877C113.633 19.9932 114.296 18.9451 115.13 18.0919C115.99 17.2144 116.996 16.5562 118.175 16.0687C119.354 15.5812 120.63 15.3374 122.005 15.3374C123.429 15.3374 124.731 15.5812 125.909 16.0931C127.088 16.5806 128.119 17.2631 128.978 18.1163C129.838 18.9694 130.501 19.9932 130.967 21.1389C131.409 22.309 131.655 23.5765 131.655 24.9416ZM121.981 20.2857C121.097 20.2857 120.336 20.5295 119.746 20.9927C119.157 21.4558 118.715 22.1627 118.494 23.089H125.664C125.099 21.2364 123.871 20.2857 121.981 20.2857Z" fill="#201600"/>
<path d="M166.815 15.8491V21.6506H164.458C163.378 21.6506 162.592 21.9188 162.125 22.4307C161.659 22.9426 161.413 23.7957 161.413 24.9414V34.2531H155.324V15.9466H159.376L160.333 17.9942C160.971 17.2386 161.684 16.7023 162.469 16.361C163.255 16.0198 164.163 15.8491 165.219 15.8491H166.815Z" fill="#A30000"/>
<path d="M177.717 34.8626C176.268 34.8626 174.942 34.6188 173.739 34.1313C172.536 33.6438 171.48 32.9613 170.596 32.1081C169.712 31.2306 169.025 30.2068 168.534 29.0123C168.043 27.8179 167.797 26.526 167.797 25.0878C167.797 23.674 168.043 22.3577 168.534 21.1632C169.025 19.9688 169.712 18.945 170.596 18.0675C171.48 17.1899 172.536 16.5318 173.739 16.0443C174.942 15.5567 176.268 15.313 177.717 15.313C179.165 15.313 180.491 15.5567 181.694 16.0443C182.898 16.5318 183.953 17.2143 184.837 18.0675C185.721 18.945 186.409 19.9688 186.9 21.1632C187.391 22.3577 187.636 23.6496 187.636 25.0878C187.636 26.5016 187.391 27.8179 186.9 29.0123C186.409 30.2068 185.721 31.2306 184.837 32.1081C183.953 32.9857 182.898 33.6438 181.694 34.1313C180.467 34.6188 179.141 34.8626 177.717 34.8626ZM177.717 29.2074C178.822 29.2074 179.755 28.8173 180.442 28.0617C181.154 27.306 181.498 26.3066 181.498 25.0878C181.498 23.869 181.154 22.8696 180.442 22.1139C179.73 21.3583 178.822 20.9682 177.717 20.9682C176.612 20.9682 175.679 21.3583 174.967 22.1139C174.255 22.8696 173.886 23.869 173.886 25.0878C173.886 26.3066 174.255 27.306 174.967 28.0617C175.703 28.8173 176.612 29.2074 177.717 29.2074Z" fill="#A30000"/>
<path d="M202 21.212H197.998V34.2532H191.909V21.212H188.987V16.2636H192.007V14.5085C192.007 12.6803 192.473 11.2665 193.431 10.2427C194.389 9.21893 195.813 8.70703 197.703 8.70703H201.951V13.5091H199.226C198.784 13.5091 198.44 13.6554 198.17 13.9235C197.9 14.1917 197.777 14.5573 197.777 14.9961V16.2392H201.976V21.212H202Z" fill="#A30000"/>
<path d="M122.767 44.1744C123.086 44.345 123.331 44.5644 123.503 44.8813C123.675 45.1738 123.773 45.5151 123.773 45.9051C123.773 46.4901 123.552 46.9776 123.11 47.392C122.668 47.8064 122.128 48.0014 121.49 48.0014H118.371V40.7617H121.392C122.005 40.7617 122.546 40.9324 122.963 41.298C123.38 41.6636 123.577 42.1024 123.577 42.6387C123.577 42.9556 123.503 43.2481 123.356 43.5162C123.208 43.76 123.012 43.9794 122.767 44.1744ZM122.054 42.8581C122.054 42.7362 122.03 42.6387 122.005 42.5412C121.956 42.4437 121.907 42.3705 121.833 42.2974C121.76 42.2243 121.686 42.1755 121.588 42.1268C121.49 42.078 121.367 42.078 121.244 42.078H119.918V43.6137H121.244C121.49 43.6137 121.686 43.5406 121.833 43.3943C121.981 43.2725 122.054 43.0774 122.054 42.8581ZM121.318 46.5389C121.563 46.5389 121.784 46.4657 121.932 46.3195C122.104 46.1732 122.177 45.9782 122.177 45.7344C122.177 45.4907 122.104 45.2957 121.932 45.1494C121.76 45.0032 121.563 44.93 121.318 44.93H119.918V46.5632H121.318V46.5389Z" fill="#201600"/>
<path d="M127.628 48.1475C127.063 48.1475 126.523 48.0256 126.057 47.7575C125.59 47.5137 125.222 47.1481 124.976 46.6849C124.706 46.2218 124.583 45.7343 124.583 45.1736C124.583 44.3205 124.878 43.6136 125.443 43.0529C126.008 42.4923 126.744 42.2241 127.628 42.2241C128.487 42.2241 129.224 42.4923 129.789 43.0529C130.353 43.6136 130.648 44.3205 130.648 45.1736C130.648 46.0268 130.353 46.7093 129.789 47.27C129.224 47.855 128.487 48.1475 127.628 48.1475ZM127.628 46.7337C128.07 46.7337 128.414 46.5874 128.708 46.2949C128.979 46.0024 129.126 45.6368 129.126 45.198C129.126 44.7592 128.979 44.3936 128.708 44.1011C128.438 43.8086 128.07 43.6623 127.628 43.6623C127.186 43.6623 126.818 43.8086 126.548 44.1011C126.278 44.3936 126.13 44.7592 126.13 45.198C126.13 45.4174 126.155 45.6368 126.229 45.8074C126.302 46.0024 126.4 46.173 126.548 46.2949C126.671 46.4168 126.842 46.5387 127.014 46.6118C127.211 46.6849 127.407 46.7337 127.628 46.7337Z" fill="#201600"/>
<path d="M134.847 42.2485C135.706 42.2485 136.394 42.5167 136.958 43.0773C137.523 43.638 137.793 44.3449 137.793 45.198C137.793 46.0512 137.523 46.7581 136.958 47.3188C136.394 47.8794 135.682 48.1719 134.847 48.1719C134.257 48.1719 133.742 48.0257 133.3 47.7088V50.0245H131.778V42.4192H132.784L133.054 42.9311C133.545 42.4679 134.135 42.2485 134.847 42.2485ZM133.619 46.295C133.914 46.5875 134.282 46.7337 134.724 46.7337C135.166 46.7337 135.534 46.5875 135.829 46.295C136.123 46.0025 136.271 45.6368 136.271 45.198C136.271 44.9055 136.197 44.6374 136.074 44.418C135.952 44.1742 135.755 44.0036 135.534 43.8574C135.313 43.7355 135.043 43.6623 134.748 43.6623C134.454 43.6623 134.184 43.7355 133.963 43.8574C133.717 43.9792 133.545 44.1742 133.423 44.418C133.3 44.6618 133.226 44.9055 133.226 45.198C133.177 45.6368 133.324 46.0025 133.619 46.295Z" fill="#201600"/>
<path d="M141.55 48.1475C140.985 48.1475 140.445 48.0256 139.978 47.7575C139.512 47.5137 139.144 47.1481 138.898 46.6849C138.628 46.2218 138.505 45.7343 138.505 45.1736C138.505 44.3205 138.8 43.6136 139.364 43.0529C139.929 42.4923 140.666 42.2241 141.55 42.2241C142.409 42.2241 143.146 42.4923 143.71 43.0529C144.275 43.6136 144.57 44.3205 144.57 45.1736C144.57 46.0268 144.275 46.7093 143.71 47.27C143.146 47.855 142.409 48.1475 141.55 48.1475ZM141.55 46.7337C141.992 46.7337 142.335 46.5874 142.63 46.2949C142.9 46.0024 143.047 45.6368 143.047 45.198C143.047 44.7592 142.9 44.3936 142.63 44.1011C142.36 43.8086 141.992 43.6623 141.55 43.6623C141.108 43.6623 140.739 43.8086 140.469 44.1011C140.199 44.3936 140.052 44.7592 140.052 45.198C140.052 45.4174 140.077 45.6368 140.15 45.8074C140.224 46.0024 140.322 46.173 140.469 46.2949C140.592 46.4168 140.764 46.5387 140.936 46.6118C141.132 46.6849 141.329 46.7337 141.55 46.7337Z" fill="#201600"/>
<path d="M150.168 42.395V43.76H148.326V47.9771H146.829V43.7357H144.987V42.3706H150.168V42.395Z" fill="#201600"/>
<path d="M155.57 42.3948H156.699V47.9769H155.496L155.373 47.4894C154.858 47.9282 154.244 48.1475 153.556 48.1475C152.697 48.1475 152.009 47.855 151.445 47.2944C150.88 46.7337 150.61 46.0268 150.61 45.1737C150.61 44.3205 150.88 43.638 151.445 43.0773C152.009 42.5167 152.697 42.2485 153.556 42.2485C154.268 42.2485 154.882 42.4679 155.398 42.9311L155.57 42.3948ZM152.574 46.2706C152.869 46.5631 153.237 46.7094 153.679 46.7094C154.121 46.7094 154.489 46.5631 154.784 46.2706C155.079 45.9781 155.226 45.6124 155.226 45.1737C155.226 44.7349 155.079 44.3693 154.784 44.0767C154.489 43.7842 154.121 43.638 153.679 43.638C153.384 43.638 153.114 43.7111 152.893 43.833C152.672 43.9792 152.476 44.1499 152.353 44.3936C152.23 44.613 152.157 44.8811 152.157 45.1737C152.157 45.6124 152.304 45.9781 152.574 46.2706Z" fill="#201600"/>
<path d="M165.759 46.5633H166.447V49.2691H165.072V47.9771H161.561V49.2691H160.186V46.5633H160.775C160.996 46.3927 161.143 46.0514 161.242 45.5639C161.34 45.0764 161.462 44.0038 161.61 42.395H165.784V46.5633H165.759ZM162.936 43.7113C162.887 44.5645 162.813 45.1983 162.715 45.6127C162.616 46.0271 162.494 46.3439 162.322 46.5633H164.262V43.7113H162.936Z" fill="#201600"/>
<path d="M168.632 42.395H172.659V47.9771H171.161V43.7113H169.86L169.663 45.7102C169.59 46.5633 169.344 47.1484 168.976 47.4896C168.608 47.8309 168.043 48.0259 167.306 48.0259H167.061V46.6608H167.429C167.625 46.6608 167.822 46.5877 167.945 46.4415C168.092 46.2952 168.166 46.1002 168.19 45.832L168.632 42.395Z" fill="#201600"/>
<path d="M175.851 42.395H178.65V47.9771H177.201V46.0514H176.293L175.212 47.9771H173.592L174.844 45.7833C174.549 45.6127 174.304 45.3933 174.132 45.1251C173.96 44.857 173.886 44.5645 173.886 44.2232C173.886 43.687 174.058 43.2726 174.451 42.9069C174.819 42.5657 175.286 42.395 175.851 42.395ZM176.121 44.8814H177.177V43.5894H176.121C175.9 43.5894 175.728 43.6382 175.605 43.7601C175.482 43.882 175.409 44.0282 175.409 44.2232C175.409 44.3451 175.433 44.467 175.482 44.5645C175.532 44.662 175.63 44.7351 175.728 44.7839C175.851 44.857 175.973 44.8814 176.121 44.8814Z" fill="#201600"/>
<path d="M187.096 44.1744C187.415 44.345 187.661 44.5644 187.833 44.8813C188.005 45.1738 188.103 45.5151 188.103 45.9051C188.103 46.4901 187.882 46.9776 187.44 47.392C186.998 47.8064 186.458 48.0014 185.819 48.0014H182.701V40.7617H185.721C186.335 40.7617 186.875 40.9324 187.293 41.298C187.71 41.6636 187.906 42.1024 187.906 42.6387C187.906 42.9556 187.833 43.2481 187.685 43.5162C187.563 43.76 187.342 43.9794 187.096 44.1744ZM186.384 42.8581C186.384 42.7362 186.36 42.6387 186.335 42.5412C186.286 42.4437 186.237 42.3705 186.163 42.2974C186.089 42.2243 186.016 42.1755 185.918 42.1268C185.819 42.078 185.697 42.078 185.574 42.078H184.248V43.6137H185.574C185.819 43.6137 186.016 43.5406 186.163 43.3943C186.31 43.2725 186.384 43.0774 186.384 42.8581ZM185.647 46.5389C185.893 46.5389 186.114 46.4657 186.261 46.3195C186.433 46.1732 186.507 45.9782 186.507 45.7344C186.507 45.4907 186.433 45.2957 186.261 45.1494C186.089 45.0032 185.893 44.93 185.647 44.93H184.248V46.5632H185.647V46.5389Z" fill="#201600"/>
<path d="M193.897 42.3948H195.027V47.9769H193.824L193.701 47.4894C193.185 47.9282 192.572 48.1475 191.884 48.1475C191.025 48.1475 190.337 47.855 189.772 47.2944C189.208 46.7337 188.938 46.0268 188.938 45.1737C188.938 44.3205 189.208 43.638 189.772 43.0773C190.337 42.5167 191.025 42.2485 191.884 42.2485C192.596 42.2485 193.21 42.4679 193.726 42.9311L193.897 42.3948ZM190.902 46.2706C191.197 46.5631 191.565 46.7094 192.007 46.7094C192.449 46.7094 192.817 46.5631 193.112 46.2706C193.406 45.9781 193.554 45.6124 193.554 45.1737C193.554 44.7349 193.406 44.3693 193.112 44.0767C192.817 43.7842 192.449 43.638 192.007 43.638C191.712 43.638 191.442 43.7111 191.221 43.833C191 43.9792 190.804 44.1499 190.681 44.3936C190.558 44.613 190.484 44.8811 190.484 45.1737C190.484 45.6124 190.607 45.9781 190.902 46.2706Z" fill="#201600"/>
<path d="M199.103 48.1475C198.538 48.1475 198.047 48.0257 197.58 47.7575C197.114 47.4894 196.77 47.1481 196.5 46.685C196.23 46.2218 196.107 45.7343 196.107 45.1737C196.107 44.3449 196.402 43.638 196.967 43.0773C197.531 42.5167 198.243 42.2485 199.103 42.2485C199.839 42.2485 200.453 42.4679 200.969 42.8823C201.484 43.2967 201.828 43.8574 201.951 44.5399H200.429C200.306 44.2717 200.109 44.0524 199.888 43.9061C199.643 43.7599 199.373 43.6623 199.078 43.6623C198.661 43.6623 198.317 43.8086 198.047 44.1011C197.777 44.3936 197.63 44.7593 197.63 45.198C197.63 45.6368 197.777 46.0024 198.047 46.295C198.317 46.5875 198.661 46.7337 199.078 46.7337C199.373 46.7337 199.643 46.6606 199.888 46.49C200.134 46.3193 200.306 46.1 200.453 45.7831H201.976C201.828 46.49 201.509 47.075 200.969 47.4894C200.478 47.9282 199.839 48.1475 199.103 48.1475Z" fill="#201600"/>
<path d="M152.083 15.6785C151.666 14.6304 151.052 13.7285 150.291 12.9728C149.53 12.2171 148.621 11.6321 147.614 11.1933C146.583 10.7546 145.454 10.5596 144.251 10.5596H134.478V16.2148H140.813H143.49C144.324 16.2148 144.987 16.483 145.478 17.0192C145.969 17.5555 146.239 18.2624 146.239 19.0912C146.239 19.9444 145.994 20.6513 145.478 21.1632C144.987 21.6994 144.3 21.9676 143.49 21.9676H142.164H140.789H134.454V34.2288H140.789V27.7203H144.226C145.454 27.7203 146.583 27.501 147.59 27.0866C148.621 26.6478 149.505 26.0628 150.266 25.2827C151.027 24.5271 151.617 23.6008 152.059 22.5526C152.476 21.5044 152.697 20.3588 152.697 19.1156C152.722 17.8724 152.501 16.7267 152.083 15.6785Z" fill="#A30000"/>
<path d="M37.6893 29.2314L25.3636 48.1229H36.0688L43.0174 37.4706L37.6893 29.2314Z" fill="#A30000"/>
<path d="M31.06 18.9692L12.0557 48.123H22.761L36.388 27.2327L31.06 18.9692Z" fill="#A30000"/>
<path d="M25.5603 10.4376C25.1183 9.75505 24.0871 9.73068 23.6451 10.4376L0.196718 46.3679C-0.294348 47.1236 0.245824 48.123 1.1543 48.123H9.45331L29.7589 16.9948L25.5603 10.4376Z" fill="#A30000"/>
<path d="M48.7628 46.3682L44.3187 39.4697L38.6714 48.1232H47.8053C48.7137 48.1232 49.2539 47.1238 48.7628 46.3682Z" fill="#A30000"/>
</g>
<defs>
<clipPath id="clip0">
<rect width="202" height="42" fill="white" transform="translate(0 8)"/>
</clipPath>
</defs>
</svg>
