<svg xmlns="http://www.w3.org/2000/svg" fill="none" viewBox="0 0 50 50">
  <defs/>
  <rect width="50" height="50" fill="url(#paint0_linear)" rx="1"/>
  <g stroke="#fff" stroke-width="1.3" clip-path="url(#clip0)">
    <path d="M34.02 14.44v4.7h-4.85v-8.49h2.1l2.75 3.79zM32.09 28.8H10.62v-6.6h28.73v.22a5.9 5.9 0 01-2.09 4.66 7.96 7.96 0 01-5.17 1.72zM22.34 31.86h7.07a3.29 3.29 0 002.62 5.27h3.75v2.22h-19.8v-2.22h3.75a3.29 3.29 0 002.61-5.27zM10.65 14.28h18.22v3.1H10.65v-3.1z"/>
  </g>
  <defs>
    <linearGradient id="paint0_linear" x1="0" x2="50" y1="25" y2="25" gradientUnits="userSpaceOnUse">
      <stop stop-color="#44B0FF"/>
      <stop offset="1" stop-color="#07C"/>
    </linearGradient>
    <clipPath id="clip0">
      <path fill="#fff" d="M0 0h30v30H0z" transform="translate(10 10)"/>
    </clipPath>
  </defs>
</svg>
