<svg width="30" height="30" viewBox="0 0 30 30" fill="none" xmlns="http://www.w3.org/2000/svg">
<rect width="30" height="30" rx="15" fill="#F9F9F9"/>
<rect width="30" height="30" rx="15" fill="#D53E92"/>
<path d="M15.0132 10.8545C12.7106 10.8545 10.8368 12.7009 10.8368 14.9707C10.8368 17.2402 12.7103 19.0866 15.0132 19.0866C17.3159 19.0866 19.1897 17.2402 19.1897 14.9707C19.1897 12.7009 17.3159 10.8545 15.0132 10.8545ZM15.0132 17.5713C13.549 17.5713 12.358 16.4045 12.358 14.9707C12.358 13.5367 13.549 12.3701 15.0132 12.3701C16.4772 12.3701 17.6684 13.5367 17.6684 14.9707C17.6684 16.4047 16.4774 17.5713 15.0132 17.5713Z" fill="white"/>
<path d="M18.3946 7H11.6054C9.06611 7 7 9.05784 7 11.5875V18.4125C7 20.9419 9.06585 23 11.6054 23H18.3946C20.9342 23 23 20.9419 23 18.4125V11.5875C23 9.0581 20.9342 7 18.3946 7ZM21.4759 18.4125C21.4759 20.1048 20.0936 21.4818 18.3946 21.4818H11.6054C9.90643 21.4818 8.52413 20.1048 8.52413 18.4125V11.5875C8.52413 9.89516 9.90643 8.51822 11.6054 8.51822H18.3946C20.0936 8.51822 21.4759 9.89516 21.4759 11.5875V18.4125Z" fill="white"/>
<path d="M19.2641 11.6653C19.8068 11.6653 20.2467 11.227 20.2467 10.6864C20.2467 10.1458 19.8068 9.70752 19.2641 9.70752C18.7213 9.70752 18.2814 10.1458 18.2814 10.6864C18.2814 11.227 18.7213 11.6653 19.2641 11.6653Z" fill="white"/>
</svg>
