<svg xmlns="http://www.w3.org/2000/svg" xmlns:xlink="http://www.w3.org/1999/xlink"><defs>
    <linearGradient id="paint0_linear" x1="0" x2="50" y1="25" y2="25" gradientUnits="userSpaceOnUse">
      <stop stop-color="#FF8000"/>
      <stop offset="1" stop-color="#FFC000"/>
    </linearGradient>
  
    <linearGradient id="paint0_linear" x1="0" x2="50" y1="25" y2="25" gradientUnits="userSpaceOnUse">
      <stop stop-color="#44B0FF"/>
      <stop offset="1" stop-color="#07C"/>
    </linearGradient>
    <clipPath id="clip0">
      <path fill="#fff" d="M0 0h30v30H0z" transform="translate(10 10)"/>
    </clipPath>
  </defs><symbol id="icon-close" viewBox="0 0 20 20"><path d="M.293 18.291a1 1 0 101.414 1.414L10 11.413l8.292 8.292a1 1 0 101.414-1.414l-8.292-8.292 8.292-8.292A1 1 0 1018.291.293L9.999 8.585 1.707.293A1 1 0 10.293 1.707L8.585 10 .293 18.291z"/></symbol><symbol id="icon-shevron" viewBox="0 0 22 22">
  
  <path d="M11 15.4l5.5-5.3-1.3-1.3-4.2 4-4.2-4-1.3 1.3 5.5 5.3z"/>
</symbol><symbol id="icon-shield" viewBox="0 0 50 50">
  
  <rect width="50" height="50" fill="url(#paint0_linear)" rx="1"/>
  <path fill="#fff" d="M14.3 16.3a24 24 0 00.6 12.4c1.4 3.7 4.3 6.9 9.6 9.4 5.3-2.5 8.2-5.7 9.6-9.4a24 24 0 00.6-12.4l-4.5-2.2c-6-3.1-5.8-3-11.8 0-1 .7-2.4 1.3-4 2.2zm-1 13a26 26 0 01-.7-13.8c0-.2.3-.5.5-.6l4.5-2.3c6.6-3.4 6.9-3.5 13.4-.1l4.9 2.4c.2 0 .4.3.5.6a26 26 0 01-.6 13.8 19.3 19.3 0 01-11 10.6h-.7c-6-2.7-9.3-6.4-10.9-10.6z"/>
  <path fill="#fff" d="M19.4 26a.9.9 0 010-1.2c.4-.4 1-.4 1.3 0l2 2 5.6-5.5c.4-.4 1-.3 1.3 0 .3.4.3 1 0 1.3l-6.3 6.1c-.3.3-.9.3-1.2 0L19.4 26z"/>
  
</symbol><symbol id="icon-tick" viewBox="0 0 15 15">
  
  <path fill="#44B022" d="M13.9 4l-.3-.3-1.2-1.2L12 2a.4.4 0 00-.6 0l-.3.3-5.8 6-2.6-2.6-.1-.2-.2-.2a.4.4 0 00-.6 0l-.3.4-.8.8-.7.7V8l.7.8 2.8 2.8 1.2 1.2c.2.3.4.3.8.3l.4-.3 1.2-1.2 4.7-4.8 1.7-1.8.3-.3V4z"/>
</symbol><symbol id="icon-tools" viewBox="0 0 50 50">
  
  <rect width="50" height="50" fill="url(#paint0_linear)" rx="1"/>
  <g stroke="#fff" stroke-width="1.3" clip-path="url(#clip0)">
    <path d="M34 14.4v4.7h-4.8v-8.5h2l2.8 3.8zM32 28.8H10.7v-6.6h28.8v.2a6 6 0 01-2.1 4.7 8 8 0 01-5.2 1.7zM22.3 31.9h7.1c-.4.5-.7 1.2-.7 2 0 1.8 1.5 3.2 3.3 3.2h3.8v2.3H16V37h3.7a3.3 3.3 0 002.6-5.2zM10.7 14.3h18.2v3H10.6v-3z"/>
  </g>
  
</symbol></svg>