<svg xmlns="http://www.w3.org/2000/svg" xmlns:xlink="http://www.w3.org/1999/xlink"><defs>
    <linearGradient id="paint0_linear" x1="0" x2="50" y1="25" y2="25" gradientUnits="userSpaceOnUse">
      <stop stop-color="#FF8000"/>
      <stop offset="1" stop-color="#FFC000"/>
    </linearGradient>
  
    <linearGradient id="paint0_linear" x1="0" x2="50" y1="25" y2="25" gradientUnits="userSpaceOnUse">
      <stop stop-color="#44B0FF"/>
      <stop offset="1" stop-color="#07C"/>
    </linearGradient>
    <clipPath id="clip0">
      <path fill="#fff" d="M0 0h30v30H0z" transform="translate(10 10)"/>
    </clipPath>
  </defs><symbol id="icon-close" viewBox="0 0 20 20"><path d="M.293 18.291a1 1 0 101.414 1.414L10 11.413l8.292 8.292a1 1 0 101.414-1.414l-8.292-8.292 8.292-8.292A1 1 0 1018.291.293L9.999 8.585 1.707.293A1 1 0 10.293 1.707L8.585 10 .293 18.291z"/></symbol><symbol id="icon-shevron" viewBox="0 0 22 22">
  
  <path d="M11 15.4l5.5-5.3-1.3-1.3-4.2 4-4.2-4-1.3 1.3 5.5 5.3z"/>
</symbol><symbol id="icon-tick" viewBox="0 0 15 15">
  
  <path fill="#44B022" d="M13.9 4l-.3-.3-1.2-1.2L12 2a.4.4 0 00-.6 0l-.3.3-5.8 6-2.6-2.6-.1-.2-.2-.2a.4.4 0 00-.6 0l-.3.4-.8.8-.7.7V8l.7.8 2.8 2.8 1.2 1.2c.2.3.4.3.8.3l.4-.3 1.2-1.2 4.7-4.8 1.7-1.8.3-.3V4z"/>
</symbol><symbol id="shield" viewBox="0 0 50 50">
  
  <rect width="50" height="50" fill="url(#paint0_linear)" rx="1"/>
  <path fill="#fff" d="M14.32 16.29c-.74 4.44-.83 8.66.56 12.36 1.4 3.7 4.32 6.95 9.62 9.46 5.3-2.51 8.22-5.76 9.62-9.46 1.4-3.7 1.3-7.92.56-12.35-1.72-.84-3.2-1.6-4.44-2.23-6-3.07-5.8-3-11.8.12-1.11.57-2.42 1.25-4.12 2.1zm-1.1 13c-1.59-4.19-1.45-8.87-.59-13.76a.9.9 0 01.5-.65c1.69-.84 3.21-1.63 4.49-2.29 6.54-3.4 6.86-3.47 13.42-.12 1.27.64 2.8 1.43 4.83 2.4a.9.9 0 01.5.66c.86 4.89 1 9.57-.58 13.75-1.6 4.22-4.9 7.88-10.92 10.64-.23.1-.5.11-.74 0-6.02-2.76-9.33-6.42-10.92-10.64z"/>
  <path fill="#fff" d="M19.42 26.04a.9.9 0 010-1.27.9.9 0 011.27 0l2 2.03 5.63-5.51a.9.9 0 011.27.02.9.9 0 01-.02 1.27l-6.26 6.13a.9.9 0 01-1.25-.01l-2.64-2.66z"/>
  
</symbol><symbol id="tools" viewBox="0 0 50 50">
  
  <rect width="50" height="50" fill="url(#paint0_linear)" rx="1"/>
  <g stroke="#fff" stroke-width="1.3" clip-path="url(#clip0)">
    <path d="M34.02 14.44v4.7h-4.85v-8.49h2.1l2.75 3.79zM32.09 28.8H10.62v-6.6h28.73v.22a5.9 5.9 0 01-2.09 4.66 7.96 7.96 0 01-5.17 1.72zM22.34 31.86h7.07a3.29 3.29 0 002.62 5.27h3.75v2.22h-19.8v-2.22h3.75a3.29 3.29 0 002.61-5.27zM10.65 14.28h18.22v3.1H10.65v-3.1z"/>
  </g>
  
</symbol></svg>