<svg xmlns="http://www.w3.org/2000/svg" xmlns:xlink="http://www.w3.org/1999/xlink"><defs>
<linearGradient id="paint0_linear" x1="-8.93547e-07" y1="61.4638" x2="123" y2="61.4638" gradientUnits="userSpaceOnUse">
<stop stop-color="#EF7900"/>
<stop offset="0.34375" stop-color="#FBBA00"/>
<stop offset="0.630208" stop-color="#44B0FF"/>
<stop offset="1" stop-color="#0077CC"/>
</linearGradient>

    <clipPath id="gate">
      <path fill="#fff" d="M0 0h202v42H0z" transform="translate(0 8)"/>
    </clipPath>
  
    <clipPath id="ozon">
      <path fill="#fff" d="M0 0h131v29H0z"/>
    </clipPath>
  </defs><symbol id="icon-arrow" viewBox="0 0 8 14">
  
  <path d="M8 7L1.52 0 0 1.65 4.96 7 0 12.35 1.52 14 8 7z"/>
</symbol><symbol id="icon-close" viewBox="0 0 20 20"><path d="M.293 18.291a1 1 0 101.414 1.414L10 11.413l8.292 8.292a1 1 0 101.414-1.414l-8.292-8.292 8.292-8.292A1 1 0 1018.291.293L9.999 8.585 1.707.293A1 1 0 10.293 1.707L8.585 10 .293 18.291z"/></symbol><symbol id="icon-infinity" viewBox="0 0 123 123">
<path d="M76.5891 41.9843L76.5945 41.9787L76.5997 41.9729C81.6385 36.4588 87.6472 33.201 96.0088 32.5C101.904 32.5052 108.577 35.2728 114.391 40.7526C125.253 51.8133 125.156 70.0858 114.382 81.2137C103.656 92.2922 89.1516 91.4957 79.5496 82.6795C77.081 80.1963 74.5953 77.7145 72.1102 75.2335C70.3943 73.5203 68.6787 71.8075 66.9693 70.0947C66.5368 69.6575 66.2857 69.0003 66.261 68.3037C66.2363 67.6069 66.4403 66.9283 66.8429 66.4536L66.843 66.4536C67.6511 65.5005 69.1954 65.4394 70.0622 66.3149L70.0635 66.3162L82.4341 78.7185L82.4418 78.7262L82.4498 78.7336C86.463 82.4214 91.343 84.5117 96.3988 84.4664C101.46 84.421 106.643 82.2356 111.254 77.473C120.247 68.1851 120.297 53.7336 111.252 44.5289L110.895 44.8793L111.252 44.5289C106.637 39.8339 101.448 37.5108 96.0677 37.6059C90.6886 37.701 85.086 40.2283 79.7186 45.7717L46.4112 79.9724L46.4102 79.9734C40.3698 86.2118 33.6173 89.3868 27.0027 89.5045C20.3901 89.6214 13.9595 86.6487 8.61562 81.211C-2.25341 70.151 -2.15776 51.8732 8.61822 40.7432C19.3444 29.6647 33.8484 30.4611 43.4504 39.2773C45.9211 41.7626 48.409 44.2466 50.8962 46.7298C52.6103 48.4411 54.3241 50.1521 56.0316 51.863L56.0321 51.8635C56.4701 52.3011 56.7265 52.9615 56.7548 53.663C56.7831 54.3643 56.5811 55.0489 56.1778 55.5296C55.3681 56.4943 53.8137 56.5643 52.9367 55.6885C52.9365 55.6883 52.9362 55.688 52.936 55.6878L40.5666 43.239L40.5586 43.2309L40.5502 43.2232C36.537 39.5354 31.657 37.4451 26.6012 37.4905C21.5399 37.5358 16.357 39.7212 11.7459 44.4838L12.1051 44.8316L11.7459 44.4838C2.75348 53.7718 2.70261 68.2709 11.7485 77.4756L12.1051 77.1252L11.7485 77.4756C16.3626 82.1706 21.552 84.4931 26.9322 84.3986C32.3114 84.3036 37.9139 81.7761 43.2814 76.2328L76.5891 41.9843Z" fill="url(#paint0_linear)" stroke="#F6F8FD"/>

</symbol><symbol id="icon-shevron" viewBox="0 0 22 22">
  
  <path d="M11 15.4l5.5-5.3-1.3-1.3-4.2 4-4.2-4-1.3 1.3 5.5 5.3z"/>
</symbol><symbol id="icon-shield-bg" viewBox="0 0 106 152">
  
  <path d="M69.67.6H36.5a35.73 35.73 0 00-25.4 10.63A36.5 36.5 0 00.59 36.9v45.3c0 9.29 3.52 18.22 9.83 24.97l40.65 43.37a2.78 2.78 0 002 .87 2.74 2.74 0 002-.87l40.68-43.37a36.52 36.52 0 009.84-24.97V36.9a36.5 36.5 0 00-10.52-25.67A35.73 35.73 0 0069.67.59zm30.4 81.6a30.9 30.9 0 01-8.3 21.14L53.1 144.56 14.4 103.31a30.9 30.9 0 01-8.29-21.14V36.9c0-8.15 3.2-15.96 8.9-21.73 5.7-5.76 13.44-9 21.5-9h33.16a30.11 30.11 0 0121.49 9 30.75 30.75 0 018.9 21.73v45.3z"/>
  <path d="M78.76 46.09L53.09 72.06 27.42 46.11a2.74 2.74 0 00-3.75.15 2.8 2.8 0 00-.15 3.8l27.63 27.92a2.75 2.75 0 003.9 0l27.63-27.93a2.81 2.81 0 00-.14-3.79 2.75 2.75 0 00-3.75-.15l-.03-.02z"/>
</symbol><symbol id="logo-gate" viewBox="0 0 202 50">
  
  <g fill="#fff" clip-path="url(#gate)">
    <path d="M73.22 21.58c0 1.95-.3 3.73-.86 5.36a12.47 12.47 0 01-2.46 4.2 11.28 11.28 0 01-8.71 3.72c-1.77 0-3.4-.31-4.89-.92-1.5-.61-2.77-1.5-3.85-2.59a11.96 11.96 0 01-2.56-3.92 13.3 13.3 0 01-.9-5c0-1.8.29-3.46.9-5a11.73 11.73 0 012.53-3.97 11.1 11.1 0 013.86-2.6 13.48 13.48 0 019.13-.24c1.33.45 2.53 1.1 3.56 1.94a10.9 10.9 0 014.05 6.77H66.4a5.04 5.04 0 00-2.04-2.4 5.84 5.84 0 00-3.16-.89 5.53 5.53 0 00-5.36 3.8 7.82 7.82 0 00-.41 2.59c0 .93.14 1.78.41 2.56.27.78.67 1.44 1.16 2 .49.56 1.1.97 1.82 1.3.7.3 1.5.45 2.38.45 1.2 0 2.28-.26 3.21-.82.94-.57 1.6-1.3 1.97-2.22h-5.72v-4.12h12.57zM94.95 15.92v18.3h-4.7l-.5-1.28a8.8 8.8 0 01-2.46 1.41 9.35 9.35 0 01-6.6-.22 9.18 9.18 0 01-2.95-2.02A9.35 9.35 0 0175.8 29c-.47-1.2-.7-2.5-.7-3.92s.23-2.73.7-3.93a8.75 8.75 0 014.89-5.07 9.78 9.78 0 013.72-.7 8.08 8.08 0 015.4 1.97l.62-1.41h4.52v-.03zm-9.73 13.36a3.77 3.77 0 002.83-1.2 4.49 4.49 0 001.1-2.95 4.4 4.4 0 00-1.1-2.94 3.85 3.85 0 00-2.83-1.2 3.7 3.7 0 00-2.87 1.2 4.17 4.17 0 00-1.1 2.97 4.4 4.4 0 001.1 2.95c.35.37.76.66 1.25.88.52.17 1.06.29 1.62.29zM110.73 28.72v5.53h-4.17c-1.99 0-3.53-.58-4.64-1.73-1.1-1.14-1.64-2.75-1.64-4.8V20.8h-3.25v-1.47l7.94-8.75h1.25v5.37h4.44v4.85h-4.3v5.82c0 .66.18 1.17.55 1.54.36.36.85.56 1.5.56h2.33zM131.66 24.94c0 .27 0 .54-.03.8-.02.27-.05.57-.1.86H118.4c.2 1.07.61 1.85 1.22 2.39.62.53 1.43.8 2.38.8.72 0 1.36-.14 1.92-.46a3.4 3.4 0 001.3-1.27h6.07a9.41 9.41 0 01-6.12 6.34c-.98.32-2.03.46-3.17.46a9.3 9.3 0 01-3.8-.75 9.14 9.14 0 01-5.06-5.14c-.49-1.2-.71-2.5-.71-3.88 0-1.4.24-2.7.71-3.9a8.98 8.98 0 015.03-5.12 9.92 9.92 0 013.83-.73 9.7 9.7 0 016.98 2.78 9 9 0 011.99 3.02c.44 1.17.69 2.44.69 3.8zm-9.68-4.65c-.88 0-1.64.24-2.23.7a3.68 3.68 0 00-1.26 2.1h7.17c-.56-1.85-1.79-2.8-3.68-2.8zM166.81 15.85v5.8h-2.35c-1.08 0-1.87.27-2.34.78-.46.51-.7 1.37-.7 2.51v9.31h-6.1v-18.3h4.06l.95 2.04a5.82 5.82 0 014.89-2.14h1.6zM177.72 34.86a10.5 10.5 0 01-3.98-.73 9.79 9.79 0 01-3.14-2.02 9.27 9.27 0 01-2.07-3.1c-.49-1.2-.73-2.48-.73-3.92 0-1.42.24-2.73.73-3.93a9.27 9.27 0 015.2-5.12 10.5 10.5 0 013.99-.73c1.44 0 2.77.25 3.97.73a9.78 9.78 0 013.15 2.03c.88.87 1.57 1.9 2.06 3.1.5 1.19.74 2.48.74 3.92 0 1.41-.25 2.73-.74 3.92a9.27 9.27 0 01-5.2 5.12c-1.23.49-2.56.73-3.98.73zm0-5.65c1.1 0 2.03-.4 2.72-1.15a4.17 4.17 0 001.06-2.97c0-1.22-.35-2.22-1.06-2.98a3.59 3.59 0 00-2.72-1.14c-1.1 0-2.04.39-2.75 1.14a4.18 4.18 0 00-1.08 2.98c0 1.22.37 2.22 1.08 2.97a3.68 3.68 0 002.75 1.15zM202 21.21h-4v13.04h-6.1V21.21H189v-4.95H192v-1.75c0-1.83.46-3.24 1.42-4.27.96-1.02 2.38-1.53 4.27-1.53h4.25v4.8h-2.72c-.45 0-.79.15-1.06.41-.27.27-.4.64-.4 1.08v1.24h4.2v4.97h.03zM122.77 44.17c.32.17.56.4.73.71.17.3.27.63.27 1.02 0 .59-.22 1.08-.66 1.5-.44.4-.98.6-1.62.6h-3.12v-7.24h3.02c.61 0 1.16.17 1.57.54.42.36.62.8.62 1.34 0 .32-.08.6-.22.88-.15.24-.35.46-.6.65zm-.72-1.31c0-.12-.02-.22-.05-.32a.89.89 0 00-.41-.41c-.1-.05-.22-.05-.35-.05h-1.32v1.53h1.32a.8.8 0 00.6-.22.68.68 0 00.21-.53zm-.73 3.68c.24 0 .46-.07.61-.22a.72.72 0 00.25-.59.72.72 0 00-.25-.58.9.9 0 00-.61-.22h-1.4v1.63h1.4v-.02zM127.63 48.15c-.57 0-1.1-.12-1.57-.4a2.54 2.54 0 01-1.08-1.07 2.9 2.9 0 01-.4-1.5 2.87 2.87 0 013.05-2.96 2.87 2.87 0 013.02 2.95c0 .86-.3 1.54-.86 2.1a2.9 2.9 0 01-2.16.88zm0-1.42c.44 0 .78-.14 1.08-.44.27-.29.42-.65.42-1.1 0-.43-.15-.8-.42-1.09-.27-.3-.64-.44-1.08-.44-.44 0-.81.15-1.08.44-.27.3-.42.66-.42 1.1 0 .22.03.44.1.6.07.2.17.37.32.5.12.12.3.24.46.31.2.07.4.12.62.12zM134.85 42.25a2.84 2.84 0 012.94 2.95 2.9 2.9 0 01-2.95 2.97c-.58 0-1.1-.14-1.54-.46v2.31h-1.52v-7.6h1l.27.51a2.5 2.5 0 011.8-.68zm-1.23 4.04c.3.3.66.44 1.1.44a1.5 1.5 0 001.55-1.53c0-.3-.07-.56-.2-.78a1.48 1.48 0 00-.54-.56 1.63 1.63 0 00-1.57 0 1.2 1.2 0 00-.54.56c-.12.24-.2.49-.2.78-.04.44.1.8.4 1.1zM141.55 48.15c-.56 0-1.1-.12-1.57-.4a2.54 2.54 0 01-1.08-1.07 2.9 2.9 0 01-.4-1.5 2.87 2.87 0 013.05-2.96 2.87 2.87 0 013.02 2.95c0 .86-.3 1.54-.86 2.1a2.9 2.9 0 01-2.16.88zm0-1.42c.44 0 .78-.14 1.08-.44.27-.29.42-.65.42-1.1 0-.43-.15-.8-.42-1.09-.27-.3-.64-.44-1.08-.44-.44 0-.81.15-1.08.44-.27.3-.42.66-.42 1.1 0 .22.03.44.1.6.07.2.17.37.32.5.12.12.3.24.47.31.2.07.39.12.61.12zM150.17 42.4v1.36h-1.84v4.22h-1.5v-4.24h-1.84v-1.37h5.18v.02zM155.57 42.4h1.13v5.58h-1.2l-.13-.5c-.51.45-1.13.67-1.81.67-.86 0-1.55-.3-2.12-.86a2.85 2.85 0 01-.83-2.12 2.84 2.84 0 012.95-2.93c.7 0 1.32.23 1.84.7l.17-.55zm-3 3.87c.3.3.67.44 1.1.44a1.5 1.5 0 001.56-1.54c0-.44-.15-.8-.45-1.1a1.5 1.5 0 00-1.1-.43c-.3 0-.57.07-.79.2-.22.14-.41.31-.54.55-.12.22-.2.5-.2.78 0 .44.15.8.42 1.1zM165.76 46.56h.69v2.7h-1.38v-1.28h-3.5v1.29h-1.38v-2.7h.59c.22-.18.36-.52.46-1 .1-.5.22-1.57.37-3.18h4.17v4.17h-.02zm-2.82-2.85c-.05.85-.13 1.49-.22 1.9-.1.42-.23.73-.4.95h1.94v-2.85h-1.32zM168.63 42.4h4.03v5.58h-1.5V43.7h-1.3l-.2 2c-.07.85-.32 1.44-.68 1.78-.37.34-.94.54-1.67.54h-.25v-1.37h.37c.2 0 .4-.07.51-.22a.93.93 0 00.25-.6l.44-3.45zM175.85 42.4h2.8v5.58h-1.45v-1.93h-.9l-1.09 1.93h-1.62l1.25-2.2c-.3-.17-.54-.39-.7-.66a1.6 1.6 0 01-.25-.9c0-.53.17-.95.56-1.31.37-.34.84-.52 1.4-.52zm.27 2.48h1.06v-1.3h-1.06c-.22 0-.4.06-.52.18a.62.62 0 00-.2.46c0 .12.03.25.08.34.05.1.15.17.25.22.12.08.24.1.4.1zM187.1 44.17c.31.17.56.4.73.71.17.3.27.63.27 1.02 0 .59-.22 1.08-.66 1.5-.44.4-.98.6-1.62.6h-3.12v-7.24h3.02c.62 0 1.16.17 1.57.54.42.36.62.8.62 1.34 0 .32-.08.6-.22.88a2.1 2.1 0 01-.6.65zm-.72-1.31c0-.12-.02-.22-.04-.32a.87.87 0 00-.42-.41c-.1-.05-.22-.05-.35-.05h-1.32v1.53h1.32a.8.8 0 00.6-.22.68.68 0 00.21-.53zm-.73 3.68c.24 0 .46-.07.61-.22a.72.72 0 00.25-.59.72.72 0 00-.25-.58.9.9 0 00-.61-.22h-1.4v1.63h1.4v-.02zM193.9 42.4h1.13v5.58h-1.2l-.13-.5c-.51.45-1.13.67-1.82.67a2.86 2.86 0 01-2.94-2.98 2.84 2.84 0 012.95-2.93c.7 0 1.32.23 1.84.7l.17-.55zm-3 3.87c.3.3.66.44 1.1.44a1.5 1.5 0 001.55-1.54 1.5 1.5 0 00-1.55-1.54c-.29 0-.56.08-.78.2-.22.15-.42.32-.54.56-.12.22-.2.5-.2.78 0 .44.13.8.42 1.1zM199.1 48.15a2.95 2.95 0 01-3-2.98 2.9 2.9 0 013-2.93c.74 0 1.35.23 1.87.64.51.42.86.98.98 1.66h-1.52a1.53 1.53 0 00-.54-.63 1.57 1.57 0 00-.81-.25c-.42 0-.76.15-1.03.44-.27.3-.42.66-.42 1.1 0 .44.15.8.42 1.1.27.29.61.43 1.03.43.3 0 .56-.07.8-.24.25-.17.43-.39.57-.7h1.53c-.15.7-.47 1.28-1.01 1.7-.5.44-1.13.66-1.87.66zM152.08 15.68a7.91 7.91 0 00-1.79-2.7 8.68 8.68 0 00-2.68-1.79 8.51 8.51 0 00-3.36-.63h-9.77v5.65h9.01c.83 0 1.5.27 1.99.8a3 3 0 01.76 2.08 2.8 2.8 0 01-.76 2.07c-.5.54-1.18.8-2 .8H134.46v12.27h6.34v-6.51h3.44a8.08 8.08 0 006.04-2.44 8.4 8.4 0 001.79-2.73c.42-1.05.64-2.2.64-3.43a8.72 8.72 0 00-.62-3.44zM37.69 29.23l-12.33 18.9h10.7l6.96-10.66-5.33-8.24zM31.06 18.97l-19 29.15h10.7L36.4 27.23l-5.33-8.26zM25.56 10.44a1.14 1.14 0 00-1.91 0L.2 46.37c-.5.75.05 1.75.95 1.75h8.3L29.75 17l-4.19-6.55zM48.76 46.37l-4.44-6.9-5.65 8.65h9.14c.9 0 1.44-1 .95-1.75z"/>
  </g>
  
</symbol><symbol id="logo-ozon" viewBox="0 0 131 29">
  
  <g clip-path="url(#ozon)">
    <path fill="#fff" fill-rule="evenodd" d="M15.75.08a14.2 14.2 0 00-8.5 1.76 14.43 14.43 0 00-5.94 6.4A14.64 14.64 0 004.1 24.73a14.28 14.28 0 0016.29 2.86 14.4 14.4 0 006.35-5.98A14.63 14.63 0 0024.4 4.26 14.25 14.25 0 0015.75.08zm-.47 22.09a7.57 7.57 0 01-7.86-4.23 7.81 7.81 0 011.43-8.9 7.62 7.62 0 0112.16 1.81 7.8 7.8 0 01-1.33 9.11 7.61 7.61 0 01-4.4 2.2zM36.18.65a3.31 3.31 0 00-2.6 1.26 3.4 3.4 0 00-.67 2.82 3.42 3.42 0 003.39 2.69h9.3L31.12 26.8a.97.97 0 00.26 1.4c.15.1.32.15.5.15H54.6c1.6 0 3.07-1.1 3.39-2.69a3.42 3.42 0 00-1.83-3.75 3.31 3.31 0 00-1.44-.33H43.38L57.86 2.22A.98.98 0 0057.6.8a.96.96 0 00-.51-.15H36.17zm90.76.08a3.39 3.39 0 00-2.6 3.4v11.26L106.28.87a.96.96 0 00-1.56.76v23.25a3.45 3.45 0 002.61 3.4 3.3 3.3 0 003.73-1.85c.22-.45.33-.95.33-1.46V13.61l18.04 14.52a.96.96 0 001.56-.76V4.03a3.4 3.4 0 00-2.58-3.29 3.3 3.3 0 00-1.48 0zM79.96 6.77c7.63 0 13.34 4.08 13.34 7.73 0 3.64-5.7 7.72-13.34 7.72-7.63 0-13.33-4.08-13.33-7.72 0-3.65 5.7-7.73 13.33-7.73zm0-6.76c-11.04 0-20 6.48-20 14.49 0 8 8.96 14.49 20 14.49 11.05 0 20-6.5 20-14.5S91.01.02 79.96.02z" clip-rule="evenodd"/>
  </g>
  
</symbol></svg>