<svg viewBox="0 0 106 152">
  <defs/>
  <path d="M69.67.6H36.5a35.73 35.73 0 00-25.4 10.63A36.5 36.5 0 00.59 36.9v45.3c0 9.29 3.52 18.22 9.83 24.97l40.65 43.37a2.78 2.78 0 002 .87 2.74 2.74 0 002-.87l40.68-43.37a36.52 36.52 0 009.84-24.97V36.9a36.5 36.5 0 00-10.52-25.67A35.73 35.73 0 0069.67.59zm30.4 81.6a30.9 30.9 0 01-8.3 21.14L53.1 144.56 14.4 103.31a30.9 30.9 0 01-8.29-21.14V36.9c0-8.15 3.2-15.96 8.9-21.73 5.7-5.76 13.44-9 21.5-9h33.16a30.11 30.11 0 0121.49 9 30.75 30.75 0 018.9 21.73v45.3z"/>
  <path d="M78.76 46.09L53.09 72.06 27.42 46.11a2.74 2.74 0 00-3.75.15 2.8 2.8 0 00-.15 3.8l27.63 27.92a2.75 2.75 0 003.9 0l27.63-27.93a2.81 2.81 0 00-.14-3.79 2.75 2.75 0 00-3.75-.15l-.03-.02z"/>
</svg>
