<svg fill="none" viewBox="0 0 50 50">
  <defs/>
  <rect width="50" height="50" fill="url(#paint0_linear)" rx="1"/>
  <path fill="#fff" d="M14.3 16.3a24 24 0 00.6 12.4c1.4 3.7 4.3 6.9 9.6 9.4 5.3-2.5 8.2-5.7 9.6-9.4a24 24 0 00.6-12.4l-4.5-2.2c-6-3.1-5.8-3-11.8 0-1 .7-2.4 1.3-4 2.2zm-1 13a26 26 0 01-.7-13.8c0-.2.3-.5.5-.6l4.5-2.3c6.6-3.4 6.9-3.5 13.4-.1l4.9 2.4c.2 0 .4.3.5.6a26 26 0 01-.6 13.8 19.3 19.3 0 01-11 10.6h-.7c-6-2.7-9.3-6.4-10.9-10.6z"/>
  <path fill="#fff" d="M19.4 26a.9.9 0 010-1.2c.4-.4 1-.4 1.3 0l2 2 5.6-5.5c.4-.4 1-.3 1.3 0 .3.4.3 1 0 1.3l-6.3 6.1c-.3.3-.9.3-1.2 0L19.4 26z"/>
  <defs>
    <linearGradient id="paint0_linear" x1="0" x2="50" y1="25" y2="25" gradientUnits="userSpaceOnUse">
      <stop stop-color="#FF8000"/>
      <stop offset="1" stop-color="#FFC000"/>
    </linearGradient>
  </defs>
</svg>
