<svg width="30" height="30" viewBox="0 0 30 30" fill="none" xmlns="http://www.w3.org/2000/svg">
<path d="M15 30C23.2843 30 30 23.2843 30 15C30 6.71573 23.2843 0 15 0C6.71573 0 0 6.71573 0 15C0 23.2843 6.71573 30 15 30Z" fill="#24C374"/>
<path fill-rule="evenodd" clip-rule="evenodd" d="M20.6688 9.3252C19.1648 7.82656 17.1645 7.00088 15.0335 7C10.6423 7 7.06859 10.5565 7.06682 14.9278C7.06623 16.3252 7.43303 17.6893 8.13021 18.8916L7 23L11.2232 21.8975C12.3869 22.5292 13.697 22.8621 15.0302 22.8625H15.0336C19.4242 22.8625 22.9983 19.3057 23 14.9342C23.0009 12.8156 22.173 10.8237 20.6688 9.3252ZM15.0335 21.5235H15.0307C13.8426 21.523 12.6774 21.2053 11.6606 20.605L11.4189 20.4621L8.91277 21.1164L9.58169 18.6847L9.4242 18.4354C8.76136 17.3861 8.41134 16.1734 8.41193 14.9283C8.41331 11.295 11.3838 8.33906 15.0361 8.33906C16.8047 8.33965 18.4673 9.02598 19.7174 10.2716C20.9675 11.5172 21.6556 13.1729 21.655 14.9337C21.6534 18.5673 18.6832 21.5235 15.0335 21.5235ZM18.6655 16.5881C18.4665 16.4889 17.4878 16.0098 17.3053 15.9436C17.123 15.8774 16.9901 15.8445 16.8575 16.0428C16.7248 16.241 16.3433 16.6873 16.2272 16.8194C16.111 16.9517 15.995 16.9683 15.7959 16.869C15.5968 16.7699 14.9555 16.5606 14.1951 15.8857C13.6034 15.3604 13.2039 14.7117 13.0877 14.5135C12.9717 14.315 13.0867 14.2182 13.1751 14.1092C13.3905 13.8429 13.6063 13.5637 13.6727 13.4315C13.7391 13.2993 13.7058 13.1836 13.656 13.0845C13.6063 12.9854 13.2082 12.0103 13.0424 11.6135C12.8807 11.2273 12.7167 11.2795 12.5944 11.2734C12.4785 11.2677 12.3457 11.2665 12.2129 11.2665C12.0803 11.2665 11.8646 11.316 11.6821 11.5145C11.4997 11.7128 10.9855 12.192 10.9855 13.1671C10.9855 14.1422 11.6988 15.0842 11.7983 15.2164C11.8978 15.3486 13.2019 17.3496 15.1987 18.2076C15.6736 18.4119 16.0444 18.5337 16.3335 18.625C16.8104 18.7758 17.2442 18.7545 17.5873 18.7035C17.9698 18.6466 18.7649 18.2242 18.9309 17.7615C19.0968 17.2987 19.0968 16.9021 19.0469 16.8194C18.9973 16.7368 18.8645 16.6873 18.6655 16.5881Z" fill="white"/>
</svg>
