<svg xmlns="http://www.w3.org/2000/svg" fill="none" viewBox="0 0 131 29">
  <defs/>
  <g clip-path="url(#ozon)">
    <path fill="#fff" fill-rule="evenodd" d="M15.75.08a14.2 14.2 0 00-8.5 1.76 14.43 14.43 0 00-5.94 6.4A14.64 14.64 0 004.1 24.73a14.28 14.28 0 0016.29 2.86 14.4 14.4 0 006.35-5.98A14.63 14.63 0 0024.4 4.26 14.25 14.25 0 0015.75.08zm-.47 22.09a7.57 7.57 0 01-7.86-4.23 7.81 7.81 0 011.43-8.9 7.62 7.62 0 0112.16 1.81 7.8 7.8 0 01-1.33 9.11 7.61 7.61 0 01-4.4 2.2zM36.18.65a3.31 3.31 0 00-2.6 1.26 3.4 3.4 0 00-.67 2.82 3.42 3.42 0 003.39 2.69h9.3L31.12 26.8a.97.97 0 00.26 1.4c.15.1.32.15.5.15H54.6c1.6 0 3.07-1.1 3.39-2.69a3.42 3.42 0 00-1.83-3.75 3.31 3.31 0 00-1.44-.33H43.38L57.86 2.22A.98.98 0 0057.6.8a.96.96 0 00-.51-.15H36.17zm90.76.08a3.39 3.39 0 00-2.6 3.4v11.26L106.28.87a.96.96 0 00-1.56.76v23.25a3.45 3.45 0 002.61 3.4 3.3 3.3 0 003.73-1.85c.22-.45.33-.95.33-1.46V13.61l18.04 14.52a.96.96 0 001.56-.76V4.03a3.4 3.4 0 00-2.58-3.29 3.3 3.3 0 00-1.48 0zM79.96 6.77c7.63 0 13.34 4.08 13.34 7.73 0 3.64-5.7 7.72-13.34 7.72-7.63 0-13.33-4.08-13.33-7.72 0-3.65 5.7-7.73 13.33-7.73zm0-6.76c-11.04 0-20 6.48-20 14.49 0 8 8.96 14.49 20 14.49 11.05 0 20-6.5 20-14.5S91.01.02 79.96.02z" clip-rule="evenodd"/>
  </g>
  <defs>
    <clipPath id="ozon">
      <path fill="#fff" d="M0 0h131v29H0z"/>
    </clipPath>
  </defs>
</svg>
