<svg width="202" height="50" viewBox="0 0 202 50" fill="none" xmlns="http://www.w3.org/2000/svg">
<path fill-rule="evenodd" clip-rule="evenodd" d="M179.84 27.1287H178.656V49.8849H183.176C184.553 48.2135 185.568 46.2762 186.156 44.1949C186.742 42.1198 186.886 39.9457 186.58 37.8118C186.274 35.6778 185.524 33.6311 184.378 31.8024C183.226 29.9568 181.706 28.3659 179.913 27.1274H179.84V27.1287ZM186.45 49.8849H201.972V40.3999C198.712 40.2677 195.485 41.103 192.702 42.7999C189.945 44.479 187.765 46.9522 186.45 49.8924V49.8837V49.8849ZM184.56 27.1274C185.862 30.5176 188.291 33.3609 191.442 35.1837C194.624 37.0293 198.334 37.7615 201.981 37.2637V27.1287H184.56V27.1274Z" fill="#E0013F"/>
<path fill-rule="evenodd" clip-rule="evenodd" d="M190.807 44.1562C193.215 45.5283 195.222 47.5024 196.63 49.8837H201.982V40.4012C197.921 40.2323 193.941 41.5733 190.816 44.1637L190.807 44.1549V44.1562ZM178.629 39.7487V49.8662H183.15C184.619 48.081 185.674 45.9947 186.24 43.7562C186.802 41.5249 186.858 39.2012 186.405 36.9462C184.109 38.5187 181.448 39.4804 178.675 39.7399L178.629 39.7487ZM196.106 27.1187H184.56C185.344 29.1713 186.55 31.0379 188.101 32.5987C189.665 34.1728 191.537 35.4097 193.601 36.2324C193.467 33.0096 194.342 29.8248 196.106 27.1199V27.1187Z" fill="#98014C"/>
<path fill-rule="evenodd" clip-rule="evenodd" d="M168.097 38.5064C171.156 35.3643 173.252 31.417 174.137 27.1289H150.838V49.8852H174.137C173.239 45.5916 171.128 41.6433 168.051 38.5064H168.097Z" fill="#67B2CA"/>
<path fill-rule="evenodd" clip-rule="evenodd" d="M167.536 27.1289H150.838V31.2789C154.818 31.2727 158.737 32.2475 162.247 34.1164C164.367 32.0776 166.151 29.7197 167.536 27.1289ZM162.247 42.8952C158.738 44.7651 154.818 45.7399 150.838 45.7327V49.8852H167.536C166.151 47.2936 164.367 44.9348 162.247 42.8952Z" fill="#B3E2D8"/>
<path fill-rule="evenodd" clip-rule="evenodd" d="M150.838 31.279V36.1352C152.751 36.7331 154.596 37.5278 156.344 38.5065C158.497 37.2976 160.484 35.8166 162.256 34.1002C158.746 32.2312 154.826 31.2564 150.846 31.2627L150.838 31.279ZM150.838 40.8777V45.734C154.818 45.7414 158.738 44.7666 162.247 42.8965C160.475 41.1797 158.488 39.6983 156.334 38.489C154.587 39.4676 152.742 40.2619 150.829 40.859L150.838 40.8777Z" fill="#05759F"/>
<path fill-rule="evenodd" clip-rule="evenodd" d="M178.656 22.7751H202V12.9476H178.656V22.7738V22.7751ZM178.656 0.0175781V10.8226H202V0.0350781L178.656 0.0175781Z" fill="#A6D514"/>
<path fill-rule="evenodd" clip-rule="evenodd" d="M178.656 19.6802H202V15.0452H178.656V19.6802ZM178.656 0.0351562V8.10016H202V0.0351562H178.656Z" fill="#40A629"/>
<path fill-rule="evenodd" clip-rule="evenodd" d="M162.916 15.9088C161.397 14.9973 160.095 13.7671 159.101 12.3038C158.828 11.2188 158.853 10.0807 159.174 9.00875C159.496 7.93124 160.101 6.95879 160.926 6.19125C161.759 5.41589 162.78 4.86967 163.888 4.60625C165.003 4.34075 166.167 4.36572 167.269 4.67875C168.369 4.99125 169.365 5.58125 170.158 6.38875C170.947 7.19121 171.508 8.18878 171.782 9.27875C172.053 10.3635 172.028 11.5012 171.706 12.5725C171.382 13.65 170.776 14.622 169.95 15.3888C168.889 16.0736 167.675 16.4883 166.415 16.5963C167.896 16.7186 169.385 16.4734 170.748 15.8825C172.101 15.2967 173.285 14.3811 174.19 13.22V0H150.838V22.775H174.137V16.7812C172.319 17.5163 170.355 17.8194 168.399 17.6664C166.444 17.5134 164.551 16.9086 162.871 15.9L162.916 15.9088Z" fill="#FFB300"/>
<path fill-rule="evenodd" clip-rule="evenodd" d="M158.043 10.4349C157.542 8.60431 157.556 6.67187 158.083 4.84863C158.614 3.0163 159.634 1.36201 161.035 0.0623828H158.441C157.588 1.648 157.11 3.40616 157.041 5.20355C156.972 7.00093 157.315 8.79035 158.043 10.4361V10.4349ZM170.7 22.8174H174.137V20.5174C173.099 21.4214 171.943 22.1804 170.7 22.7736V22.8174ZM152.221 0.0361328H150.838V1.97488L151.027 1.66738C151.388 1.09863 151.787 0.554883 152.221 0.0361328ZM150.838 16.9586V22.7749H157.275C156.835 22.5636 156.404 22.3311 155.982 22.0786C153.869 20.813 152.103 19.0485 150.838 16.9411V16.9586Z" fill="#FF8000"/>
<path fill-rule="evenodd" clip-rule="evenodd" d="M162.917 15.9089C160.269 14.3243 158.325 11.7947 157.481 8.83394C156.651 5.89015 156.995 2.74067 158.442 0.0439453H154.88C153.247 2.59243 152.591 5.64261 153.034 8.63394C153.486 11.6345 155 14.3751 157.303 16.3602C159.633 18.3709 162.593 19.5111 165.675 19.5852C168.769 19.6639 171.792 18.6739 174.209 16.7902C172.392 17.5252 170.428 17.8282 168.472 17.6752C166.517 17.5222 164.624 16.9175 162.944 15.9089H162.917ZM171.785 0.740195C171.334 0.469521 170.859 0.239446 170.366 0.0526953H163.947C162.388 0.645244 161.03 1.66753 160.032 3.0002C159.044 4.31909 158.464 5.89567 158.36 7.53769C158.687 6.20858 159.379 4.99653 160.359 4.03769C161.35 3.0685 162.588 2.38696 163.939 2.06645C165.295 1.74332 166.714 1.79126 168.045 2.2052C169.369 2.61545 170.556 3.37884 171.475 4.41269C172.386 5.43541 172.991 6.69152 173.222 8.03895C173.45 9.38224 173.294 10.7625 172.771 12.0214C172.243 13.2889 171.373 14.3857 170.257 15.1902C169.13 16.0028 167.802 16.4953 166.415 16.6152C167.896 16.7379 169.385 16.4931 170.748 15.9027C172.101 15.3172 173.285 14.4016 174.191 13.2402V2.84644C173.527 2.00141 172.711 1.28675 171.785 0.738945V0.740195Z" fill="#FF6600"/>
<path fill-rule="evenodd" clip-rule="evenodd" d="M52.7082 43.3714V44.0764H50.0232V49.8851H49.165V43.3714H52.7082ZM54.7972 46.5701C55.0306 46.6226 55.2715 46.6464 55.5124 46.6414C56.5512 46.6414 57.1836 46.1476 57.1836 45.2489C57.1836 44.3489 56.56 43.9701 55.6102 43.9701C55.3374 43.9638 55.0647 43.9877 54.7972 44.0414V46.5701ZM53.8939 43.4326C54.4408 43.3472 54.9939 43.3062 55.5475 43.3101C56.2159 43.2564 56.8811 43.4475 57.4182 43.8476C57.6119 44.0175 57.7652 44.2283 57.8668 44.4646C57.9684 44.701 58.0157 44.957 58.0054 45.2139C58.0192 45.4686 57.9808 45.7235 57.8923 45.963C57.8039 46.2024 57.6673 46.4213 57.491 46.6064C57.2142 46.8536 56.8913 47.0439 56.5405 47.1664C56.1898 47.2889 55.8182 47.3411 55.4471 47.3201C55.2138 47.3255 54.9806 47.3045 54.752 47.2576V49.9026H53.8487V43.4689L53.8926 43.4326H53.8939ZM59.851 43.3714L61.1797 46.1564C61.3515 46.5439 61.5059 46.9314 61.669 47.3114C61.7857 46.9851 61.9124 46.5976 62.083 46.1389L63.1244 43.3714H64.0277L62.6263 46.7214C62.3079 47.5918 61.889 48.4224 61.3779 49.1964C61.2073 49.4395 60.9811 49.6388 60.7179 49.7776C60.4545 49.9164 60.1596 49.9926 59.8597 49.9989C59.6943 50.0045 59.5291 49.9834 59.3704 49.9364L59.462 49.2489C59.5674 49.2626 59.6728 49.2626 59.7782 49.2489C60.4745 49.2489 60.8823 48.6064 61.0893 48.1301C61.126 48.0721 61.1454 48.0049 61.1454 47.9364C61.1454 47.8678 61.126 47.8006 61.0893 47.7426L58.8648 43.3364L59.851 43.3714ZM70.094 43.3714V49.8839H69.227V44.0764H66.1255V49.8851H65.2673V43.3714H70.094ZM76.9193 43.3714V49.8839H76.0612V44.0764H72.9584V49.8851H72.0902V43.3714H76.9181H76.9193ZM82.1989 47.1789L81.5478 45.3014C81.4035 44.8789 81.3044 44.4914 81.2053 44.1114C81.1049 44.4989 80.997 44.8964 80.8703 45.2926L80.2191 47.1789H82.1989ZM80.0121 47.8401L79.3157 49.8939H78.4124L80.6808 43.3814H81.7197L83.9981 49.8939H83.0948L82.3796 47.8401H80.0108H80.0121ZM88.9427 43.3714V46.2626H89.215L91.5022 43.3714H92.5424L90.0104 46.3589C90.4621 46.4214 90.8824 46.6139 91.2162 46.9151C91.5512 47.2151 91.7833 47.6101 91.8811 48.0426C92.0894 48.6726 92.3328 49.2901 92.6139 49.8926H91.7105C91.4716 49.397 91.2691 48.8849 91.1045 48.3601C91.0267 47.9365 90.7954 47.5562 90.4546 47.2914C90.1098 47.0227 89.6799 46.8857 89.2426 46.9051H88.9615V49.8926H88.1121V43.3801L88.944 43.3714H88.9427ZM94.2964 46.6676C94.2964 48.0601 95.0742 49.3114 96.4293 49.3114C97.7856 49.3114 98.5722 48.0864 98.5722 46.6064C98.5722 45.3101 97.8759 43.9626 96.4393 43.9626C95.0015 43.9626 94.2964 45.2489 94.2964 46.6764V46.6676ZM99.4856 46.5614C99.4856 48.8001 98.0842 49.9901 96.3841 49.9901C94.6853 49.9901 93.383 48.6601 93.383 46.6851C93.383 44.7101 94.7029 43.2651 96.4845 43.2651C98.2661 43.2651 99.4856 44.6314 99.4856 46.5614ZM106.7 47.0201C106.655 46.1389 106.592 45.0201 106.601 44.2076C106.375 44.9751 106.095 45.7951 105.76 46.6851L104.522 49.8401H103.871L102.785 46.7389C102.484 45.9088 102.225 45.0645 102.007 44.2089C102.007 45.0201 101.936 46.1126 101.882 47.0914L101.701 49.8851H100.906L101.375 43.3714H102.479L103.617 46.5264C103.888 47.3289 104.124 48.0426 104.287 48.7214C104.458 48.0601 104.694 47.3464 104.992 46.5264L106.184 43.3714H107.288L107.704 49.8839H106.863L106.691 47.0214H106.7V47.0201ZM114.367 43.3714V49.8839H113.499V44.0764H110.399V49.8851H109.53V43.3714H114.367ZM119.638 47.1789L118.986 45.3014C118.842 44.8789 118.742 44.4914 118.643 44.1114C118.543 44.4989 118.435 44.8964 118.308 45.2926L117.658 47.1789H119.638ZM117.45 47.8401L116.753 49.8939H115.85L118.119 43.3814H119.159L121.437 49.8939H120.534L119.819 47.8401H117.449H117.45ZM123.787 43.3714V46.0951H127.024V43.3714H127.892V49.8839H127.024V46.8264H123.787V49.8851H122.929V43.3714H123.787ZM130.74 43.3714V46.1126C130.74 47.1351 130.74 47.9989 130.659 48.8714C130.994 48.1926 131.409 47.4876 131.898 46.7114L134.059 43.3626H134.962V49.8751H134.149V47.1001C134.149 46.0426 134.149 45.2751 134.231 44.4551C133.865 45.2125 133.451 45.9457 132.991 46.6501L130.904 49.8851H129.999V43.3726H130.74V43.3714ZM138.814 41.9964C138.814 42.3051 138.958 42.6039 139.42 42.6039C139.881 42.6039 139.99 42.3139 140.025 41.9964H140.685C140.64 42.6401 140.242 43.0364 139.401 43.0364C139.248 43.0574 139.092 43.0464 138.943 43.0042C138.794 42.9621 138.656 42.8896 138.537 42.7914C138.42 42.6939 138.325 42.5724 138.259 42.4353C138.193 42.2981 138.157 42.1485 138.154 41.9964H138.814ZM137.72 43.3714V46.1126C137.72 47.1351 137.72 47.9989 137.639 48.8714C137.974 48.1926 138.389 47.4876 138.877 46.7114L141.037 43.3614H141.942V49.8751H141.129V47.1001C141.129 46.0414 141.129 45.2751 141.209 44.4551C140.845 45.2126 140.433 45.9451 139.971 46.6501L137.883 49.8839H136.979V43.3714H137.72ZM135.523 24.6426L142.955 12.4976H137.322L132.802 20.5526L128.344 12.4976H122.667L130.098 24.6426L122.16 37.4226H127.865L132.783 28.7414L137.738 37.4226H143.443L135.478 24.6426H135.523ZM102.641 37.4226H119.484V33.0776H107.64V27.1276H117.721V22.7751H107.632V16.8251H119.476V12.4801H102.631V37.4051L102.64 37.4226H102.641ZM80.7887 16.8426H87.471V37.4226H92.4608V16.8426H99.0979V12.4976H80.7423V16.8426H80.7875H80.7887ZM73.6372 25.9201C73.6372 29.3839 73.4929 31.2089 72.4176 32.3276C72.0099 32.7651 71.5105 33.1139 70.9547 33.3489C70.3967 33.5847 69.7955 33.7022 69.1894 33.6939C68.5874 33.7033 67.9901 33.5862 67.4366 33.3501C66.8864 33.1159 66.3928 32.7673 65.9888 32.3276C65.0227 31.2789 64.7328 29.8076 64.7328 26.1589V23.8226C64.7328 20.6676 64.9863 18.6764 65.99 17.5564C66.3918 17.1166 66.8857 16.7701 67.4366 16.5414C67.9899 16.3114 68.5884 16.2039 69.1894 16.2264C69.7941 16.2089 70.3951 16.3176 70.9522 16.5476C71.5092 16.7776 72.0099 17.1226 72.4176 17.5564C73.3837 18.6401 73.6384 20.4301 73.6384 23.6464V25.9214L73.6372 25.9201ZM69.1906 11.8901C67.9102 11.8488 66.635 12.0705 65.4442 12.5414C64.2601 13.0091 63.1867 13.7175 62.2925 14.6214C60.3942 16.5526 59.9237 19.1514 59.7794 22.7914H55.9013V12.4976H50.9103V37.4226H55.9013V27.1276H59.7431C59.8158 30.4151 60.1772 33.2001 62.2925 35.2976C64.1632 37.052 66.6366 38.027 69.2057 38.0226C71.784 38.0226 74.262 37.0464 76.1164 35.2976C78.5931 32.7776 78.6294 29.8776 78.6294 25.7101V22.3601C78.6294 18.9314 78.0147 16.5164 76.1164 14.6226C75.2131 13.7233 74.1345 13.018 72.9471 12.5501C71.7525 12.0796 70.4747 11.8551 69.1906 11.8901ZM29.0767 23.8051C29.0767 31.6139 27.2687 33.0776 24.6917 33.0776H23.9765V37.4226H25.9488C31.2648 37.4226 33.8858 34.5489 33.8858 24.0876V16.8426H39.9885V37.4226H44.9795V12.4976H29.0667V23.8051H29.0755H29.0767ZM8.15528 28.9426L11.4011 19.8489L14.5101 28.9439H8.15528V28.9426ZM9.30329 12.5239L0 37.4501H5.20683L6.75383 33.0426H15.7949L17.3042 37.4501H22.5111L13.209 12.5001L9.30329 12.5251V12.5239Z" fill="#4D4D4D"/>
</svg>
